# AST/ASF file generated using VICON BodyLanguage
# -----------------------------------------------
:version 1.10
:name VICON
:units
  mass 1.0
  length 0.45
  angle deg
:documentation
   .ast/.asf automatically generated from VICON data using
   VICON BodyBuilder and BodyLanguage model FoxedUp or BRILLIANT.MOD
:root
   order TX TY TZ RX RY RZ
   axis XYZ
   position 0 0 0  
   orientation 0 0 0 
:bonedata
  begin
     id 1 
     name lhipjoint
     direction 0.645897 -0.709066 0.282916 
     length 2.50918 
     axis 0 0 0  XYZ
  end
  begin
     id 2 
     name lfemur
     direction 0.34202 -0.939693 0  
     length 6.85725  
     axis 0 0 20  XYZ
    dof rx ry rz
    limits (-160.0 20.0)
           (-70.0 70.0)
           (-60.0 70.0)
  end
  begin
     id 3 
     name ltibia
     direction 0.34202 -0.939693 0   
     length 8.01778   
     axis 0 0 20   XYZ
    dof rx
    limits (-10.0 170.0)
  end
  begin
     id 4 
     name lfoot
     direction 0.0796011 -0.218702 0.972539   
     length 2.13962   
     axis -90 7.62852e-016 20   XYZ
    dof rx rz
    limits (-45.0 90.0)
           (-70.0 20.0)
  end
  begin
     id 5 
     name ltoes
     direction 1.53548e-011 -4.21881e-011 1   
     length 1.07476   
     axis -90 7.62852e-016 20   XYZ
    dof rx
    limits (-90.0 20.0)
  end
  begin
     id 6 
     name rhipjoint
     direction -0.63101 -0.720537 0.287493   
     length 2.46923  
     axis 0 0 0  XYZ 
  end
  begin
     id 7 
     name rfemur
     direction -0.34202 -0.939693 0   
     length 6.81957   
     axis 0 0 -20   XYZ
    dof rx ry rz
    limits (-160.0 20.0)
           (-70.0 70.0)
           (-70.0 60.0)
  end
  begin
     id 8 
     name rtibia
     direction -0.34202 -0.939693 0   
     length 8.15152   
     axis 0 0 -20   XYZ
    dof rx
    limits (-10.0 170.0)
 end
 begin
     id 9 
     name rfoot
     direction -0.105819 -0.290734 0.950934   
     length 2.14588  
     axis -90 -7.62852e-016 -20   XYZ
    dof rx rz
    limits (-45.0 90.0)
           (-20.0 70.0)
  end
  begin
     id 10 
     name rtoes
     direction -1.53512e-011 -4.22005e-011 1   
     length 1.0703   
     axis -90 -7.62852e-016 -20   XYZ
    dof rx
    limits (-90.0 20.0)
  end
  begin
     id 11 
     name lowerback
     direction 0.0114933 0.999236 0.0373542   
     length 1.91711   
     axis 0 0 0   XYZ
    dof rx ry rz
    limits (-20.0 45.0)
           (-30.0 30.0)
           (-30.0 30.0)
  end
  begin
     id 12 
     name upperback
     direction 0.00911529 0.998099 0.0609554   
     length 1.90888   
     axis 0 0 0   XYZ
    dof rx ry rz
    limits (-20.0 45.0)
           (-30.0 30.0)
           (-30.0 30.0)
  end
  begin
     id 13 
     name thorax
     direction 0.00357322 0.99911 0.0420379   
     length 1.90942   
     axis 0 0 0   XYZ
    dof rx ry rz
    limits (-20.0 45.0)
           (-30.0 30.0)
           (-30.0 30.0)
  end
  begin
     id 14 
     name lowerneck
     direction -0.0589311 0.997882 0.0275448   
     length 1.83956   
     axis 0 0 0   XYZ
    dof rx ry rz
    limits (-20.0 45.0)
           (-30.0 30.0)
           (-30.0 30.0)
  end
  begin
     id 15 
     name upperneck
     direction 0.0362633 0.960055 -0.277453   
     length 1.82031   
     axis 0 0 0   XYZ
    dof rx ry rz
    limits (-20.0 45.0)
           (-30.0 30.0)
           (-30.0 30.0)
  end
  begin
     id 16
     name head
     direction 0.0166719 0.995328 -0.0951042  
     length 1.86084  
     axis 0 0 0   XYZ
    dof rx ry rz
    limits (-20.0 45.0)
           (-30.0 30.0)
           (-30.0 30.0)
  end
  begin
     id 17 
     name lclavicle
     direction 0.90319 0.426238 0.0506919  
     length 3.17828  
     axis 0 0 0   XYZ
    dof ry rz
    limits (-20.0 10.0)
           (0.0 20.0)
  end
  begin
     id 18 
     name lhumerus
     direction 1 -4.48953e-011 6.78797e-028   
     length 5.43592   
     axis 180 -30 -90   XYZ
    dof rx ry rz
    limits (-60.0 90.0)
           (-90.0 90.0)
           (-90.0 90.0)
  end
  begin
     id 19
     name lradius
     direction 1 -4.48969e-011 7.02702e-027   
     length 3.2546   
     axis 180 -30 -90   XYZ
    dof rx
    limits (-10.0 170.0)
  end
  begin
     id 20
     name lwrist
     direction 1 -4.48975e-011 1.29807e-026   
     length 1.6273   
     axis -8.50346e-015 90 90   XYZ
    dof ry
    limits (-180.0 0.0)
 end
  begin
     id 21 
     name lhand
     direction 1 -4.48917e-011 2.59615e-026   
     length 0.498244   
     axis -1.65656e-014 90 90   XYZ
    dof rx rz
    limits (-90.0 90.0)
           (-45.0 45.0)
  end
  begin
     id 22 
     name lfingers
     direction 1 -4.48885e-011 5.1923e-026   
     length 0.401697   
     axis -3.31313e-014 90 90   XYZ
    dof rx
    limits (0.0 90.0)
  end
  begin
     id 23
     name lthumb
     direction 0.707107 -6.34946e-011 0.707107   
     length 0.576759   
     axis -90 45 2.85299e-015   XYZ
    dof rx rz
    limits (-45.0 45.0)
           (-45.0 45.0)
  end
  begin
     id 24 
     name rclavicle
     direction -0.908603 0.391432 0.145676   
     length 3.15477  
     axis 0 0 0   XYZ 
    dof ry rz
    limits (-10.0 20.0)
           (-20.0 0.0)
  end
  begin
     id 25 
     name rhumerus
     direction -1 -4.4898e-011 1.02852e-027  
     length 5.3383   
     axis 180 30 90   XYZ
    dof rx ry rz
    limits (-90.0 60.0)
           (-90.0 90.0)
           (-90.0 90.0)
  end
  begin
     id 26 
     name rradius
     direction -1 -4.48968e-011 7.05567e-027   
     length 3.23148   
     axis 180 30 90   XYZ
    dof rx
    limits (-10.0 170.0)
  end
  begin
     id 27 
     name rwrist
     direction -1 -4.48927e-011 1.29807e-026   
     length 1.61574   
     axis -8.50346e-015 -90 -90   XYZ
    dof ry
    limits (-180.0 0.0)
  end
  begin
     id 28
     name rhand
     direction -1 -4.48905e-011 2.59615e-026   
     length 0.463641   
     axis -1.65656e-014 -90 -90   XYZ
    dof rx rz
    limits (-90.0 90.0)
           (-45.0 45.0)
  end
  begin
     id 29
     name rfingers
     direction -1 -4.49167e-011 5.1923e-026   
     length 0.373799   
     axis -3.31313e-014 -90 -90   XYZ
    dof rx
    limits (0.0 90.0)
  end
  begin
     id 30
     name rthumb
     direction -0.707107 -6.34954e-011 0.707107   
     length 0.536703   
     axis -90 -45 -2.85299e-015   XYZ
    dof rx rz
    limits (-45.0 45.0)
           (-45.0 45.0)
  end
:hierarchy
  begin
    root lhipjoint rhipjoint lowerback
    lhipjoint lfemur
    lfemur ltibia
    ltibia lfoot
    lfoot ltoes
    rhipjoint rfemur
    rfemur rtibia
    rtibia rfoot
    rfoot rtoes
    lowerback upperback
    upperback thorax
    thorax lowerneck lclavicle rclavicle
    lowerneck upperneck
    upperneck head
    lclavicle lhumerus
    lhumerus lradius
    lradius lwrist
    lwrist lhand lthumb
    lhand lfingers
    rclavicle rhumerus
    rhumerus rradius
    rradius rwrist
    rwrist rhand rthumb
    rhand rfingers
  end

#!OML:ASF F:\VICON\USERDATA\INSTALL\rory3\rory3.ASF
:FULLY-SPECIFIED
:DEGREES
30
root 4.12738 17.5637 3.95163 20.1647 -12.4272 -3.82776
lowerback -8.08394 -0.85277 6.74849
upperback -13.2128 -1.19625 3.16991
thorax -9.70551 -1.11207 -0.332126
lowerneck -5.20057 17.3674 12.8432
upperneck 14.4116 21.3822 5.46351
head 6.01287 11.4136 1.41853
rclavicle 8.15017e-015 -1.82882e-014
rhumerus -10.676 -21.5899 23.763
rradius 121.544
rwrist -57.3499
rhand -2.84362 -45.0713
rfingers 7.12502
rthumb 22.864 -73.736
lclavicle 8.15017e-015 -1.82882e-014
lhumerus 31.9524 34.622 -10.8813
lradius 30.7972
lwrist 38.8412
lhand -29.9003 -20.4217
lfingers 7.12502
lthumb -3.22122 9.53368
rfemur -4.03703 12.3123 -2.1641
rtibia 5.73074
rfoot 23.1315 -9.97489
rtoes -35.8948
lfemur -22.989 -3.42687 -23.2554
ltibia 20.8356
lfoot -15.0376 14.7003
ltoes 10.4557
31
root 4.12407 17.5643 3.9498 20.263 -12.6542 -3.8204
lowerback -8.13016 -0.830586 6.61648
upperback -13.2752 -1.16333 3.23195
thorax -9.74154 -1.08221 -0.191718
lowerneck -5.24346 17.3941 12.6821
upperneck 14.6212 21.4029 5.61632
head 6.05379 11.4346 1.49638
rclavicle 3.95581e-014 -4.77083e-015
rhumerus -10.5393 -21.5503 23.7151
rradius 121.628
rwrist -57.3232
rhand -2.87555 -44.9868
rfingers 7.12502
rthumb 22.8334 -73.6553
lclavicle 3.95581e-014 -4.77083e-015
lhumerus 31.7031 34.4238 -11.0831
lradius 30.8235
lwrist 38.8678
lhand -30.0459 -20.5702
lfingers 7.12502
lthumb -3.36178 9.38304
rfemur -4.35733 12.4678 -2.30037
rtibia 5.92192
rfoot 23.0664 -9.95455
rtoes -35.9242
lfemur -23.0781 -3.51711 -23.2613
ltibia 20.8011
lfoot -15.0263 14.9511
ltoes 10.4983
32
root 4.1213 17.5655 3.94332 20.3098 -12.6517 -3.77996
lowerback -8.08261 -0.847851 6.50513
upperback -13.3468 -1.17553 3.25034
thorax -9.84761 -1.0799 -0.10595
lowerneck -5.19745 17.3637 12.663
upperneck 14.7342 21.3645 5.64401
head 6.07713 11.4214 1.50516
rclavicle 5.54609e-014 -3.97569e-014
rhumerus -10.5581 -21.3872 23.7415
rradius 121.804
rwrist -57.5263
rhand -3.1974 -44.9981
rfingers 7.12502
rthumb 22.5245 -73.7043
lclavicle 5.54609e-014 -3.97569e-014
lhumerus 31.8044 34.4441 -10.8942
lradius 30.7496
lwrist 38.5206
lhand -29.9485 -20.6015
lfingers 7.12502
lthumb -3.26774 9.35318
rfemur -4.40155 12.433 -2.33447
rtibia 5.86498
rfoot 23.1305 -9.95786
rtoes -35.933
lfemur -23.1979 -3.55254 -23.2648
ltibia 20.8246
lfoot -14.9285 14.9836
ltoes 10.2709
33
root 4.12019 17.5654 3.94177 20.3007 -12.646 -3.83884
lowerback -8.04245 -0.808828 6.54208
upperback -13.3398 -1.12178 3.22011
thorax -9.86217 -1.05838 -0.158479
lowerneck -5.3114 17.3306 12.7258
upperneck 14.8568 21.2857 5.67564
head 6.13723 11.3925 1.51954
rclavicle -5.66536e-014 -2.38542e-014
rhumerus -10.7577 -21.2259 23.8103
rradius 121.955
rwrist -57.6712
rhand -3.79765 -45.1172
rfingers 7.12502
rthumb 21.9483 -73.8921
lclavicle -5.66536e-014 -2.38542e-014
lhumerus 32.1826 34.706 -10.4759
lradius 30.6419
lwrist 38.0777
lhand -29.8023 -20.5514
lfingers 7.12502
lthumb -3.12655 9.4054
rfemur -4.49142 12.4566 -2.25515
rtibia 6.05043
rfoot 23.0557 -9.96439
rtoes -35.9238
lfemur -23.161 -3.54517 -23.1998
ltibia 20.8173
lfoot -14.9005 15.0248
ltoes 10.0648
34
root 4.11885 17.5656 3.94011 20.3352 -12.6874 -3.84566
lowerback -8.10227 -0.775386 6.53525
upperback -13.3156 -1.0859 3.18361
thorax -9.7973 -1.04047 -0.197152
lowerneck -5.33938 17.343 12.7695
upperneck 14.7788 21.295 5.67216
head 6.12178 11.3957 1.51289
rclavicle -1.53064e-014 7.95139e-016
rhumerus -10.9121 -21.2512 23.9019
rradius 121.966
rwrist -57.4986
rhand -3.45677 -44.9794
rfingers 7.12502
rthumb 22.2755 -73.7155
lclavicle -1.53064e-014 7.95139e-016
lhumerus 32.3142 34.8269 -10.3976
lradius 30.5953
lwrist 37.8974
lhand -30.0098 -20.7962
lfingers 7.12502
lthumb -3.32689 9.15763
rfemur -4.59257 12.4828 -2.26537
rtibia 6.12863
rfoot 23.0729 -9.99367
rtoes -36.0232
lfemur -23.1913 -3.52562 -23.1964
ltibia 20.8246
lfoot -15.0401 14.9993
ltoes 10.3937
35
root 4.11718 17.5673 3.93838 20.406 -12.6828 -3.87603
lowerback -8.21697 -0.75951 6.55831
upperback -13.2986 -1.0773 3.17457
thorax -9.71185 -1.0372 -0.223535
lowerneck -5.25294 17.3676 12.8001
upperneck 14.551 21.3539 5.6104
head 6.04512 11.413 1.47503
rclavicle 3.67752e-014 1.59028e-015
rhumerus -10.9782 -21.3761 23.9466
rradius 121.906
rwrist -57.3746
rhand -2.65474 -44.7505
rfingers 7.12502
rthumb 23.0453 -73.3926
lclavicle 3.67752e-014 1.59028e-015
lhumerus 32.6465 35.2056 -9.99446
lradius 30.4489
lwrist 37.3973
lhand -30.0043 -20.9579
lfingers 7.12502
lthumb -3.32158 8.996
rfemur -4.61096 12.4654 -2.23766
rtibia 6.04073
rfoot 23.1321 -9.99111
rtoes -36.0247
lfemur -23.308 -3.4062 -23.1711
ltibia 20.8617
lfoot -15.0533 14.8888
ltoes 10.5671
36
root 4.11776 17.5676 3.93966 20.3953 -12.6213 -3.93754
lowerback -8.29238 -0.736978 6.68835
upperback -13.2432 -1.06069 3.14719
thorax -9.60943 -1.0397 -0.329022
lowerneck -5.36087 17.3713 12.7763
upperneck 14.552 21.3403 5.63767
head 6.05675 11.407 1.49408
rclavicle 1.55052e-014 2.54444e-014
rhumerus -11.0672 -21.4495 23.9548
rradius 121.856
rwrist -57.3516
rhand -2.33735 -44.6721
rfingers 7.12502
rthumb 23.3498 -73.2758
lclavicle 1.55052e-014 2.54444e-014
lhumerus 32.8986 35.498 -9.70555
lradius 30.405
lwrist 37.1466
lhand -29.9158 -20.985
lfingers 7.12502
lthumb -3.23615 8.97022
rfemur -4.48732 12.4409 -2.14952
rtibia 5.94322
rfoot 23.0939 -9.97601
rtoes -35.8894
lfemur -23.2875 -3.32781 -23.1215
ltibia 20.8884
lfoot -15.0258 14.8061
ltoes 10.4923
37
root 4.11836 17.5662 3.94069 20.3766 -12.5655 -3.95514
lowerback -8.3609 -0.74492 6.7797
upperback -13.2022 -1.08219 3.13865
thorax -9.52814 -1.05708 -0.391894
lowerneck -5.62624 17.3727 12.7823
upperneck 14.8783 21.2839 5.67779
head 6.20108 11.394 1.54671
rclavicle -1.98785e-016 -2.94201e-014
rhumerus -11.0629 -21.4346 23.9045
rradius 121.872
rwrist -57.4559
rhand -3.02573 -44.8305
rfingers 7.12502
rthumb 22.6893 -73.5166
lclavicle -1.98785e-016 -2.94201e-014
lhumerus 32.8324 35.5068 -9.76925
lradius 30.454
lwrist 37.1424
lhand -29.945 -21.1746
lfingers 7.12502
lthumb -3.26438 8.78017
rfemur -4.33513 12.4063 -2.11044
rtibia 5.78669
rfoot 23.1539 -10.0155
rtoes -35.9492
lfemur -23.2498 -3.38029 -23.0945
ltibia 20.9085
lfoot -15.0947 14.791
ltoes 10.5914
38
root 4.11727 17.5669 3.94065 20.3774 -12.5202 -3.95023
lowerback -8.40578 -0.799782 6.78806
upperback -13.2039 -1.15778 3.1846
thorax -9.50852 -1.09267 -0.34796
lowerneck -5.63752 17.4059 12.7918
upperneck 14.9987 21.3283 5.64375
head 6.24825 11.4178 1.54997
rclavicle 4.29375e-014 3.4191e-014
rhumerus -10.9186 -21.3808 23.7917
rradius 121.946
rwrist -57.5788
rhand -3.72027 -44.9928
rfingers 7.12502
rthumb 22.0226 -73.759
lclavicle 4.29375e-014 3.4191e-014
lhumerus 32.8194 35.6333 -9.65425
lradius 30.3918
lwrist 36.7925
lhand -29.7238 -21.3046
lfingers 7.12502
lthumb -3.05073 8.65335
rfemur -4.19358 12.3654 -2.09233
rtibia 5.56154
rfoot 23.2976 -10.0349
rtoes -36.0346
lfemur -23.2657 -3.39622 -23.0843
ltibia 20.9292
lfoot -15.138 14.7568
ltoes 10.6389
39
root 4.11656 17.5691 3.94113 20.3571 -12.4913 -3.97612
lowerback -8.37748 -0.836527 6.81019
upperback -13.2117 -1.20242 3.22119
thorax -9.5371 -1.1156 -0.319419
lowerneck -5.58533 17.4667 12.6969
upperneck 14.9758 21.4177 5.73592
head 6.2137 11.4624 1.58702
rclavicle -3.29983e-014 -2.78299e-014
rhumerus -10.8143 -21.4002 23.7279
rradius 121.904
rwrist -57.3545
rhand -3.03715 -44.749
rfingers 7.12502
rthumb 22.6783 -73.4364
lclavicle -3.29983e-014 -2.78299e-014
lhumerus 32.7611 35.6801 -9.65266
lradius 30.3734
lwrist 36.675
lhand -29.3542 -21.2387
lfingers 7.12502
lthumb -2.69377 8.72401
rfemur -4.12188 12.3588 -2.04583
rtibia 5.45961
rfoot 23.3248 -10.0032
rtoes -35.9774
lfemur -23.2471 -3.32357 -23.0705
ltibia 20.9289
lfoot -15.1169 14.7235
ltoes 10.4479
40
root 4.11434 17.5707 3.94048 20.33 -12.5776 -4.03732
lowerback -8.30023 -0.809194 6.81678
upperback -13.2195 -1.15707 3.24188
thorax -9.58793 -1.09357 -0.29847
lowerneck -5.55701 17.4917 12.5868
upperneck 14.9714 21.454 5.84316
head 6.18424 11.4824 1.62779
rclavicle -9.14409e-015 -1.90833e-014
rhumerus -10.8058 -21.3926 23.768
rradius 121.842
rwrist -57.1882
rhand -2.34636 -44.4958
rfingers 7.12502
rthumb 23.3412 -73.1007
lclavicle -9.14409e-015 -1.90833e-014
lhumerus 32.7325 35.6641 -9.69856
lradius 30.394
lwrist 36.7888
lhand -28.992 -20.9057
lfingers 7.12502
lthumb -2.34399 9.0612
rfemur -4.16894 12.4694 -2.00726
rtibia 5.49466
rfoot 23.2884 -10.0016
rtoes -36.0005
lfemur -23.2037 -3.29474 -23.013
ltibia 20.9168
lfoot -15.1015 14.8191
ltoes 10.4534
